grf
version=1
nRows=17
nColumns=37
inDegrees=no
endheader
time	ground_force_1_vx	ground_force_1_vy	ground_force_1_vz	ground_force_1_px	ground_force_1_py	ground_force_1_pz	ground_moment_1_mx	ground_moment_1_my	ground_moment_1_mz	ground_force_2_vx	ground_force_2_vy	ground_force_2_vz	ground_force_2_px	ground_force_2_py	ground_force_2_pz	ground_moment_2_mx	ground_moment_2_my	ground_moment_2_mz	ground_force_3_vx	ground_force_3_vy	ground_force_3_vz	ground_force_3_px	ground_force_3_py	ground_force_3_pz	ground_moment_3_mx	ground_moment_3_my	ground_moment_3_mz	ground_force_4_vx	ground_force_4_vy	ground_force_4_vz	ground_force_4_px	ground_force_4_py	ground_force_4_pz	ground_moment_4_mx	ground_moment_4_my	ground_moment_4_mz
      2.14000000	      0.00000000	     -0.00000000	      0.00000000	      0.00000000	      0.00000000	      0.00000000	      0.00000000	      0.00000000	      0.00000000	      0.14101526	     56.05234909	   -405.82492065	   -301.66752772	  -1094.63042098	      0.00000000	      0.00000000	      0.00000000	   2220.30226550	     -2.45128848	    -54.69818857	   -414.97012329	   -289.97940375	   -691.84109375	      0.00000000	      0.00000000	     -0.00000000	  -2165.59659443	      0.00000000	     -0.00000000	      0.00000000	      0.00000000	      0.00000000	      0.00000000	      0.00000000	      0.00000000	      0.00000000
      2.15000000	      0.00000000	     -0.00000000	      0.00000000	      0.00000000	      0.00000000	      0.00000000	      0.00000000	      0.00000000	      0.00000000	      1.18027234	     55.59098053	   -404.97192383	   -302.45451842	  -1094.26445518	      0.00000000	     -0.00000000	      0.00000000	   2407.36843750	     -1.16937209	    -54.66042318	   -412.47503662	   -290.62030421	   -694.13392287	      0.00000000	      0.00000000	      0.00000000	  -2106.52866756	      0.00000000	     -0.00000000	      0.00000000	      0.00000000	      0.00000000	      0.00000000	      0.00000000	      0.00000000	      0.00000000
      2.16000000	      0.00000000	     -0.00000000	      0.00000000	      0.00000000	      0.00000000	      0.00000000	      0.00000000	      0.00000000	      0.00000000	      1.09134614	     55.61217117	   -407.25769043	   -304.37842281	  -1094.51305401	      0.00000000	     -0.00000000	      0.00000000	   2173.20773428	     -0.77190942	    -53.87622827	   -413.61956787	   -292.93256369	   -693.79590788	      0.00000000	      0.00000000	     -0.00000000	  -2115.04190113	      0.00000000	     -0.00000000	      0.00000000	      0.00000000	      0.00000000	      0.00000000	      0.00000000	      0.00000000	      0.00000000
      2.17000000	      0.00000000	     -0.00000000	      0.00000000	      0.00000000	      0.00000000	      0.00000000	      0.00000000	      0.00000000	      0.00000000	      1.99349678	     55.56083298	   -408.33709717	   -306.65284465	  -1094.26450933	      0.00000000	     -0.00000000	      0.00000000	   2386.48437331	      0.00523336	    -53.79312515	   -414.77151489	   -293.98674018	   -692.99779300	      0.00000000	      0.00000000	     -0.00000000	  -2064.58261628	      0.00000000	     -0.00000000	      0.00000000	      0.00000000	      0.00000000	      0.00000000	      0.00000000	      0.00000000	      0.00000000
      2.18000000	      0.00000000	     -0.00000000	      0.00000000	      0.00000000	      0.00000000	      0.00000000	      0.00000000	      0.00000000	      0.00000000	      2.17651820	     55.27097321	   -407.64987183	   -306.87426612	  -1093.16482372	      0.00000000	      0.00000000	      0.00000000	   2155.16414604	      0.70968159	    -53.69444663	   -415.47009277	   -295.44295900	   -694.31545749	      0.00000000	      0.00000000	     -0.00000000	  -2124.89076933	      0.00000000	     -0.00000000	      0.00000000	      0.00000000	      0.00000000	      0.00000000	      0.00000000	      0.00000000	      0.00000000
      2.19000000	      0.00000000	     -0.00000000	      0.00000000	      0.00000000	      0.00000000	      0.00000000	      0.00000000	      0.00000000	      0.00000000	      3.01311255	     55.53825760	   -408.37518311	   -308.02118605	  -1093.40987598	      0.00000000	      0.00000000	     -0.00000000	   2292.74669783	      0.87689169	    -53.65193565	   -416.28918457	   -296.28382712	   -694.49199957	      0.00000000	      0.00000000	     -0.00000000	  -2012.09321297	      0.00000000	     -0.00000000	      0.00000000	      0.00000000	      0.00000000	      0.00000000	      0.00000000	      0.00000000	      0.00000000
      2.20000000	      0.00000000	     -0.00000000	      0.00000000	      0.00000000	      0.00000000	      0.00000000	      0.00000000	      0.00000000	      0.00000000	      3.84099674	     55.81045151	   -409.09982300	   -309.60526022	  -1092.75566696	      0.00000000	      0.00000000	      0.00000000	   2391.14036925	      0.63105014	    -54.23453146	   -418.92242432	   -296.89338249	   -693.96361309	      0.00000000	      0.00000000	     -0.00000000	  -2160.89847866	      0.00000000	     -0.00000000	      0.00000000	      0.00000000	      0.00000000	      0.00000000	      0.00000000	      0.00000000	      0.00000000
      2.21000000	      0.00000000	     -0.00000000	      0.00000000	      0.00000000	      0.00000000	      0.00000000	      0.00000000	      0.00000000	      0.00000000	      3.21157837	     55.21548843	   -410.65194702	   -311.32838401	  -1093.58793513	      0.00000000	      0.00000000	      0.00000000	   2164.03458861	     -0.18735124	    -54.57786177	   -416.98468018	   -296.85682900	   -694.98080423	      0.00000000	      0.00000000	     -0.00000000	  -1873.03374865	      0.00000000	     -0.00000000	      0.00000000	      0.00000000	      0.00000000	      0.00000000	      0.00000000	      0.00000000	      0.00000000
      2.22000000	      0.00000000	     -0.00000000	      0.00000000	      0.00000000	      0.00000000	      0.00000000	      0.00000000	      0.00000000	      0.00000000	      3.71797013	     55.80043793	   -411.41656494	   -311.51237989	  -1093.41158559	      0.00000000	      0.00000000	      0.00000000	   2206.41083080	      0.06907573	    -54.41593171	   -418.92398071	   -297.63862325	   -693.83708719	      0.00000000	     -0.00000000	     -0.00000000	  -1978.60208004	      0.00000000	     -0.00000000	      0.00000000	      0.00000000	      0.00000000	      0.00000000	      0.00000000	      0.00000000	      0.00000000
      2.23000000	      0.00000000	     -0.00000000	      0.00000000	      0.00000000	      0.00000000	      0.00000000	      0.00000000	      0.00000000	      0.00000000	      3.15087342	     55.32150269	   -411.23309326	   -312.08933510	  -1092.46963382	      0.00000000	      0.00000000	      0.00000000	   2301.51108477	      0.06931817	    -54.73049164	   -416.94424438	   -298.54443373	   -695.49046394	      0.00000000	      0.00000000	     -0.00000000	  -2199.18927487	      0.00000000	     -0.00000000	      0.00000000	      0.00000000	      0.00000000	      0.00000000	      0.00000000	      0.00000000	      0.00000000
      2.24000000	      0.00000000	     -0.00000000	      0.00000000	      0.00000000	      0.00000000	      0.00000000	      0.00000000	      0.00000000	      0.00000000	      3.13638759	     55.42510223	   -411.86331177	   -312.56786661	  -1091.60051051	      0.00000000	      0.00000000	      0.00000000	   2285.44456171	     -0.69061218	    -54.39665979	   -417.95327759	   -297.87385291	   -695.02153771	      0.00000000	      0.00000000	     -0.00000000	  -1863.65376637	      0.00000000	     -0.00000000	      0.00000000	      0.00000000	      0.00000000	      0.00000000	      0.00000000	      0.00000000	      0.00000000
      2.25000000	      0.00000000	     -0.00000000	      0.00000000	      0.00000000	      0.00000000	      0.00000000	      0.00000000	      0.00000000	      0.00000000	      3.54997087	     55.15328979	   -413.31182861	   -312.95642675	  -1093.21890305	      0.00000000	     -0.00000000	      0.00000000	   2438.44798520	     -0.36897540	    -53.89498135	   -417.95303345	   -299.35512042	   -695.83563655	      0.00000000	      0.00000000	     -0.00000000	  -2055.53838846	      0.00000000	     -0.00000000	      0.00000000	      0.00000000	      0.00000000	      0.00000000	      0.00000000	      0.00000000	      0.00000000
      2.26000000	      0.00000000	     -0.00000000	      0.00000000	      0.00000000	      0.00000000	      0.00000000	      0.00000000	      0.00000000	      0.00000000	      3.38999939	     55.17625427	   -414.24417114	   -314.63837336	  -1091.74686129	      0.00000000	      0.00000000	      0.00000000	   2119.60345355	     -0.69579515	    -53.50910562	   -415.89428711	   -299.36048705	   -696.85624393	      0.00000000	      0.00000000	     -0.00000000	  -1831.45538053	      0.00000000	     -0.00000000	      0.00000000	      0.00000000	      0.00000000	      0.00000000	      0.00000000	      0.00000000	      0.00000000
      2.27000000	      0.00000000	     -0.00000000	      0.00000000	      0.00000000	      0.00000000	      0.00000000	      0.00000000	      0.00000000	      0.00000000	      3.66657853	     54.83755112	   -413.67999268	   -315.01132606	  -1090.97737828	      0.00000000	      0.00000000	      0.00000000	   2304.12697789	     -0.63012293	    -52.80271525	   -415.58038330	   -299.52826666	   -696.48014351	      0.00000000	      0.00000000	     -0.00000000	  -1821.12899519	      0.00000000	     -0.00000000	      0.00000000	      0.00000000	      0.00000000	      0.00000000	      0.00000000	      0.00000000	      0.00000000
      2.28000000	      0.00000000	     -0.00000000	      0.00000000	      0.00000000	      0.00000000	      0.00000000	      0.00000000	      0.00000000	      0.00000000	      3.94293642	     54.90432739	   -413.66119385	   -315.85522407	  -1090.49132834	      0.00000000	      0.00000000	      0.00000000	   2261.52316076	     -1.04195191	    -51.94214621	   -416.25982666	   -299.48652865	   -695.96485782	      0.00000000	      0.00000000	     -0.00000000	  -1835.61668879	      0.00000000	     -0.00000000	      0.00000000	      0.00000000	      0.00000000	      0.00000000	      0.00000000	      0.00000000	      0.00000000
      2.29000000	      0.00000000	     -0.00000000	      0.00000000	      0.00000000	      0.00000000	      0.00000000	      0.00000000	      0.00000000	      0.00000000	      3.42906690	     54.46735382	   -412.93609619	   -316.31170408	  -1092.17109679	      0.00000000	     -0.00000000	      0.00000000	   2086.83966345	     -0.45243674	    -51.40764232	   -414.44299316	   -300.50117426	   -696.80965276	      0.00000000	     -0.00000000	     -0.00000000	  -1971.32768073	      0.00000000	     -0.00000000	      0.00000000	      0.00000000	      0.00000000	      0.00000000	      0.00000000	      0.00000000	      0.00000000
      2.30000000	      0.00000000	     -0.00000000	      0.00000000	      0.00000000	      0.00000000	      0.00000000	      0.00000000	      0.00000000	      0.00000000	      3.75112128	     53.72853088	   -412.16101074	   -316.92898313	  -1090.38044611	      0.00000000	      0.00000000	      0.00000000	   2051.07752620	     -0.15991200	    -50.78497313	   -416.45172119	   -301.44347858	   -695.84938223	      0.00000000	      0.00000000	     -0.00000000	  -1767.52021920	      0.00000000	     -0.00000000	      0.00000000	      0.00000000	      0.00000000	      0.00000000	      0.00000000	      0.00000000	      0.00000000
